<svg id="OF_icon" data-name="OF icon" xmlns="http://www.w3.org/2000/svg" viewBox="0 0 676 659"><defs><style>.cls-1{fill:#fff;}.cls-2{fill:#ffe500;}.cls-3{fill:#231f20;}</style></defs><rect class="cls-1" width="676" height="659" rx="92.97"/><path id="Black" d="M529.72,530.19H429.05v-95.6a147.17,147.17,0,0,1-12.54,26.24q-21.75,35.87-60.15,56t-86.59,20.19q-48.21,0-86.6-20.19a157,157,0,0,1-34.82-24.67l9.4,15.78q34,57,94,89.43t134.79,32.46q74.76,0,134.45-32.46T615,508a234.81,234.81,0,0,0,28.89-74H529.72Z" transform="translate(-59 -50)"/><path id="Black-2" data-name="Black" d="M529.72,306v51.54H648.34A249.85,249.85,0,0,0,638.88,306Z" transform="translate(-59 -50)"/><path id="PMS_108C" data-name="PMS 108C" class="cls-2" d="M269.77,222.68q48.19,0,86.59,20.18t60.15,56.05a147.17,147.17,0,0,1,12.54,26.24v-95.6H599.88Q568.45,188.18,521,162.33q-59.67-32.46-134.45-32.46T251.73,162.33q-60,32.46-94,89.43l-9.41,15.79a157.67,157.67,0,0,1,34.83-24.69Q221.57,222.69,269.77,222.68Z" transform="translate(-59 -50)"/><path id="PMS_108C-2" data-name="PMS 108C" class="cls-2" d="M303.68,313.94a66.91,66.91,0,0,0-67.82,0q-15.15,9.24-24.11,26.2t-8.95,39.73q0,22.77,8.95,39.73t24.11,26.19a66.84,66.84,0,0,0,67.82,0,65.9,65.9,0,0,0,24.1-26.19q9-17,9-39.73t-9-39.73A66,66,0,0,0,303.68,313.94Z" transform="translate(-59 -50)"/><path class="cls-3" d="M556.6,606h-7.45v-3.53h19.09V606h-7.46v19H556.6Z" transform="translate(-59 -50)"/><path class="cls-3" d="M592.05,625l0-14.91-7.4,12.34h-1.86l-7.39-12.15V625h-4V602.48h3.44l8.94,14.91,8.77-14.91H596L596,625Z" transform="translate(-59 -50)"/></svg>