<svg id="OF_icon" data-name="OF icon" xmlns="http://www.w3.org/2000/svg" viewBox="0 0 788 768.18"><defs><style>.cls-1{fill:#fff;}.cls-2{fill:#ffe500;}.cls-3{fill:#231f20;}</style></defs><rect class="cls-1" width="788" height="768.18" rx="92.97"/><path id="Black" d="M589.77,619.7H443.26V480.57A212.91,212.91,0,0,1,425,518.75q-31.65,52.2-87.53,81.57t-126,29.38q-70.16,0-126-29.38a228.25,228.25,0,0,1-50.68-35.91l13.68,23Q97.82,670.3,185.18,717.54t196.18,47.24q108.81,0,195.68-47.24T713.81,587.38a341.84,341.84,0,0,0,42.05-107.69H589.77Z" transform="translate(-3 -16.41)"/><path id="Black-2" data-name="Black" d="M589.77,293.42v75H762.41a363.18,363.18,0,0,0-13.78-75Z" transform="translate(-3 -16.41)"/><path id="PMS_108C" data-name="PMS 108C" class="cls-2" d="M211.44,172.16q70.15,0,126,29.38T425,283.11a213,213,0,0,1,18.26,38.19V182.16H691.87Q646.14,122,577,84.32,490.18,37.1,381.36,37.08T185.18,84.32Q97.82,131.59,48.41,214.48l-13.69,23a228.39,228.39,0,0,1,50.69-35.93Q141.29,172.15,211.44,172.16Z" transform="translate(-3 -16.41)"/><path id="PMS_108C-2" data-name="PMS 108C" class="cls-2" d="M260.8,305q-22.05-13.43-49.36-13.44T162.09,305Q140,318.43,127,343.11t-13,57.82q0,33.13,13,57.82t35.08,38.13q22,13.44,49.35,13.43t49.36-13.43q22-13.44,35.07-38.13t13-57.82q0-33.12-13-57.82T260.8,305Z" transform="translate(-3 -16.41)"/><path class="cls-3" d="M628.89,730.05H618v-5.14h27.78v5.14H635v27.6h-6.08Z" transform="translate(-3 -16.41)"/><path class="cls-3" d="M680.48,757.65l-.05-21.7-10.76,18H667L656.2,736.23v21.42h-5.8V724.91h5l13,21.7,12.77-21.7h5l.05,32.74Z" transform="translate(-3 -16.41)"/></svg>