<svg id="Layer_1" data-name="Layer 1" xmlns="http://www.w3.org/2000/svg" viewBox="0 0 533.04 133.23"><defs><style>.cls-1{fill:#fff;}.cls-2{fill:#ffe500;}</style></defs><path class="cls-1" d="M234.66,136.15a73.45,73.45,0,0,0-68.2.09,62.26,62.26,0,0,0-24.05,23.23,67.69,67.69,0,0,0,0,66.22,62.19,62.19,0,0,0,24.05,23.23,73.38,73.38,0,0,0,68.2.09,62.31,62.31,0,0,0,24-23.23,67.36,67.36,0,0,0,0-66.4A62.38,62.38,0,0,0,234.66,136.15Zm8.43,81.17a45.21,45.21,0,0,1-17.42,17.26,53.44,53.44,0,0,1-50.14,0,45.68,45.68,0,0,1-17.6-17.26,51,51,0,0,1,0-49.46,45.68,45.68,0,0,1,17.6-17.26,51,51,0,0,1,25.12-6.25,50.49,50.49,0,0,1,25,6.25,45.25,45.25,0,0,1,17.42,17.25,51.58,51.58,0,0,1,0,49.48Z" transform="translate(-133.76 -125.13)"/><path class="cls-1" d="M344.7,210.08c0,9.78-2.6,17.48-7.71,22.86S324.93,241,315.88,241c-8.23,0-14.33-2.2-18.66-6.74s-6.49-11.35-6.49-20.32V159.29H273.31v55.86c0,13.59,3.76,24.12,11.18,31.28s17.53,10.76,30.16,10.76a43.15,43.15,0,0,0,20.79-4.94,36.76,36.76,0,0,0,9.78-7.61v11.68h16.9v-97H344.7Z" transform="translate(-133.76 -125.13)"/><path class="cls-1" d="M428.14,237.41a16.3,16.3,0,0,1-5.38,3,20.57,20.57,0,0,1-6.63,1.09c-4.47,0-7.74-1.15-10-3.52s-3.41-6-3.41-10.78V174.79h28v-15.5h-28V139.17H385.29v20.12H368.84v15.5h16.45v53.13c0,9.17,2.6,16.41,7.73,21.54s12.43,7.73,21.71,7.73a37.71,37.71,0,0,0,11.53-1.78,26.14,26.14,0,0,0,9.56-5.33l1.41-1.26-6.64-13.54Z" transform="translate(-133.76 -125.13)"/><polygon class="cls-1" points="327.56 20.7 398.59 20.7 398.59 4.5 309.61 4.5 309.61 131.98 327.56 131.98 327.56 72.72 390.89 72.72 390.89 56.52 327.56 56.52 327.56 20.7"/><polygon class="cls-1" points="393.73 50.45 419.7 50.45 419.7 133.23 437.89 133.23 437.89 34.99 393.73 34.99 393.73 50.45"/><path class="cls-1" d="M649.19,236.07l-2.45,2.13a16.08,16.08,0,0,1-5.39,3,20.47,20.47,0,0,1-6.62,1.09c-4.47,0-7.74-1.15-10-3.52s-3.41-6-3.41-10.78V175.58h28v-15.5h-28V140H603.88v20.12H587.44v15.5h16.44v53.14c0,9.16,2.6,16.41,7.73,21.53S624.05,258,633.33,258a37.64,37.64,0,0,0,11.52-1.78,26.11,26.11,0,0,0,9.57-5.33l1.4-1.26Z" transform="translate(-133.76 -125.13)"/><path class="cls-2" d="M560.05,125.13a13.28,13.28,0,0,0-9.73,4.29,13.93,13.93,0,0,0-4.22,10.06,14.12,14.12,0,0,0,4.22,10.13,13.17,13.17,0,0,0,9.73,4.36,13.63,13.63,0,0,0,10.13-4.16,14.16,14.16,0,0,0,4.09-10.33,13.92,13.92,0,0,0-4.16-10.12A13.61,13.61,0,0,0,560.05,125.13Z" transform="translate(-133.76 -125.13)"/><path class="cls-1" d="M666.8,140.23a9.19,9.19,0,1,1-9.16-9.14A9,9,0,0,1,666.8,140.23Zm-1.22,0a7.76,7.76,0,0,0-7.94-8,8,8,0,1,0,7.94,8Zm-5.46,1.58,2.36,3.67h-1.79l-2.16-3.33h-2.84v3.33h-1.77v-10.4h4.17c2.6,0,4.21,1.37,4.21,3.53A3.17,3.17,0,0,1,660.12,141.81Zm.47-3.2c0-1.32-1-2.05-2.63-2.05h-2.29v4.14H658C659.62,140.7,660.59,139.94,660.59,138.61Z" transform="translate(-133.76 -125.13)"/></svg>