<?xml version="1.0" standalone="no"?>
<!DOCTYPE svg PUBLIC "-//W3C//DTD SVG 20010904//EN"
 "http://www.w3.org/TR/2001/REC-SVG-20010904/DTD/svg10.dtd">
<svg version="1.0" xmlns="http://www.w3.org/2000/svg"
 width="788.000000pt" height="788.000000pt" viewBox="0 0 788.000000 788.000000"
 preserveAspectRatio="xMidYMid meet">
<metadata>
Created by potrace 1.11, written by Peter Selinger 2001-2013
</metadata>
<g transform="translate(0.000000,788.000000) scale(0.100000,-0.100000)"
fill="#000000" stroke="none">
<path d="M3395 7555 c-634 -53 -1201 -231 -1710 -536 -468 -280 -837 -627
-1123 -1056 -59 -87 -186 -294 -212 -344 -12 -23 -12 -23 6 -8 182 152 345
260 529 349 176 86 320 138 505 183 260 64 336 72 700 72 311 0 332 -1 484
-28 708 -125 1258 -474 1619 -1028 52 -79 152 -272 189 -364 15 -37 16 4 17
643 l1 682 1234 0 c679 0 1237 4 1240 8 12 19 -247 307 -409 455 -565 516
-1313 855 -2095 951 -301 37 -684 45 -975 21z"/>
<path d="M1956 5020 c-227 -36 -384 -114 -536 -269 -180 -182 -270 -385 -301
-676 -20 -187 2 -392 61 -567 112 -333 376 -575 704 -642 99 -21 303 -21 403
0 285 59 518 247 655 529 88 183 126 412 107 658 -37 498 -327 860 -763 953
-89 19 -254 26 -330 14z"/>
<path d="M5867 5013 c-4 -3 -7 -174 -7 -379 0 -330 2 -373 16 -378 24 -9 1697
-7 1712 3 29 18 -43 462 -113 709 l-16 52 -793 0 c-436 0 -796 -3 -799 -7z"/>
<path d="M5867 3153 c-4 -3 -7 -321 -7 -705 l0 -698 -725 0 -725 0 0 696 c0
382 -4 693 -9 690 -4 -3 -16 -27 -26 -53 -31 -84 -135 -285 -192 -373 -336
-517 -867 -867 -1518 -999 -191 -39 -329 -51 -581 -51 -266 0 -433 17 -647 65
-395 88 -773 278 -1061 532 -27 24 -51 41 -54 39 -6 -7 117 -215 225 -379 407
-620 1044 -1112 1785 -1380 383 -139 758 -212 1231 -238 332 -19 732 8 1057
70 162 32 190 38 291 66 654 181 1218 503 1669 955 400 400 ?v=1114 872 865 1415
38 116 87 324 81 341 -5 12 -126 14 -829 14 -453 0 -827 -3 -830 -7z"/>
<path d="M6142 673 c3 -26 7 -28 55 -31 l52 -3 3 -137 c3 -134 3 -137 26 -140
46 -7 52 11 52 149 l0 129 50 0 c49 0 50 1 50 30 l0 30 -146 0 -145 0 3 -27z"/>
<path d="M6472 533 l3 -168 30 0 30 0 5 94 5 95 45 -75 c25 -40 53 -75 62 -77
11 -2 31 21 65 78 l48 81 5 -98 5 -98 30 0 30 0 3 168 2 167 -32 0 c-31 0 -36
-6 -93 -105 l-61 -104 -62 104 c-57 96 -66 105 -93 105 l-29 0 2 -167z"/>
</g>
</svg>
